<svg width="55" height="52" viewBox="0 0 55 52" fill="none" xmlns="http://www.w3.org/2000/svg">
<circle cx="6.47404" cy="6.47404" r="6.47404" transform="matrix(-1 0 0 1 40.9768 0)" fill="white"/>
<circle cx="3.80826" cy="3.80826" r="3.80826" transform="matrix(-1 0 0 1 32.6362 44.3835)" fill="white"/>
<circle cx="3.42743" cy="3.42743" r="3.42743" transform="matrix(-1 0 0 1 15.5481 38.7705)" fill="white"/>
<circle cx="2.66578" cy="2.66578" r="2.66578" transform="matrix(-1 0 0 1 5.49268 28.1812)" fill="white"/>
<circle cx="1.90413" cy="1.90413" r="1.90413" transform="matrix(-1 0 0 1 7.87402 14.8262)" fill="white"/>
<circle cx="1.21172" cy="1.21172" r="1.21172" transform="matrix(-1 0 0 1 16.8591 6.63843)" fill="white"/>
<circle cx="4.95073" cy="4.95073" r="4.95073" transform="matrix(-1 0 0 1 50.4648 35.5898)" fill="white"/>
<circle cx="5.71239" cy="5.71239" r="5.71239" transform="matrix(-1 0 0 1 55 15.748)" fill="white"/>
</svg>
