<svg width="16" height="17" viewBox="0 0 16 17" fill="none" xmlns="http://www.w3.org/2000/svg">
<mask id="path-1-inside-1_6_5383" fill="white">
<path fill-rule="evenodd" clip-rule="evenodd" d="M12.6948 1.89569C10.3234 -0.0768841 6.47863 -0.0768841 4.10725 1.89569C2.06003 3.59862 1.74286 6.26696 3.34952 8.27041L8.40101 14.5694L13.4525 8.27041C15.0592 6.26696 14.742 3.59862 12.6948 1.89569ZM8.29058 6.11165C8.6568 6.11165 8.95369 5.86469 8.95369 5.56006C8.95369 5.25542 8.6568 5.00846 8.29058 5.00846C7.92435 5.00846 7.62746 5.25542 7.62746 5.56006C7.62746 5.86469 7.92435 6.11165 8.29058 6.11165Z"/>
</mask>
<path d="M4.10725 1.89569L5.38625 3.43327L4.10725 1.89569ZM12.6948 1.89569L11.4158 3.43327L12.6948 1.89569ZM3.34952 8.27041L1.78927 9.52165H1.78927L3.34952 8.27041ZM8.40101 14.5694L6.84076 15.8207L8.40101 17.7663L9.96127 15.8207L8.40101 14.5694ZM13.4525 8.27041L11.8922 7.01916L13.4525 8.27041ZM5.38625 3.43327C7.01642 2.07726 9.7856 2.07726 11.4158 3.43327L13.9738 0.35811C10.8612 -2.23102 5.94084 -2.23102 2.82825 0.35811L5.38625 3.43327ZM4.90978 7.01917C4.02666 5.91795 4.12587 4.48169 5.38625 3.43327L2.82825 0.35811C-0.00580478 2.71555 -0.540936 6.61597 1.78927 9.52165L4.90978 7.01917ZM9.96127 13.3182L4.90978 7.01917L1.78927 9.52165L6.84076 15.8207L9.96127 13.3182ZM11.8922 7.01916L6.84076 13.3182L9.96127 15.8207L15.0128 9.52165L11.8922 7.01916ZM11.4158 3.43327C12.6762 4.4817 12.7754 5.91795 11.8922 7.01916L15.0128 9.52165C17.343 6.61597 16.8078 2.71555 13.9738 0.35811L11.4158 3.43327ZM6.95369 5.56006C6.95369 5.02736 7.21841 4.63049 7.48046 4.41251C7.73825 4.19808 8.03115 4.11165 8.29058 4.11165V8.11165C9.4008 8.11165 10.9537 7.29824 10.9537 5.56006H6.95369ZM8.29058 7.00846C8.03115 7.00846 7.73825 6.92204 7.48046 6.7076C7.21841 6.48962 6.95369 6.09275 6.95369 5.56006H10.9537C10.9537 3.82187 9.4008 3.00846 8.29058 3.00846V7.00846ZM9.62746 5.56006C9.62746 6.09275 9.36273 6.48962 9.10069 6.7076C8.8429 6.92204 8.55 7.00846 8.29058 7.00846V3.00846C7.18035 3.00846 5.62746 3.82187 5.62746 5.56006H9.62746ZM8.29058 4.11165C8.55 4.11165 8.8429 4.19808 9.10069 4.41251C9.36273 4.63049 9.62746 5.02736 9.62746 5.56006H5.62746C5.62746 7.29824 7.18035 8.11165 8.29058 8.11165V4.11165Z" fill="#238C98" mask="url(#path-1-inside-1_6_5383)"/>
<path d="M5.3903 13.1858C3.19003 13.4188 1.67554 13.9066 1.67554 14.4708C1.67554 15.2609 4.6468 15.9015 8.31203 15.9015C11.9773 15.9015 14.9485 15.2609 14.9485 14.4708C14.9485 13.9066 13.434 13.4188 11.2338 13.1858" stroke="white" stroke-width="2"/>
</svg>
