<svg width="59" height="69" viewBox="0 0 59 69" fill="none" xmlns="http://www.w3.org/2000/svg">
<rect x="1.46882" y="0.967603" width="56.121" height="46.4449" rx="8.70842" stroke="#386578" stroke-width="1.93521"/>
<path d="M16.7954 56.4731L13.6072 65.2505H12.3041L15.9752 55.6198H16.8152L16.7954 56.4731ZM19.4676 65.2505L16.2728 56.4731L16.253 55.6198H17.093L20.7773 65.2505H19.4676ZM19.3022 61.6853V62.7304H13.8916V61.6853H19.3022ZM23.1056 59.4694V68.0021H21.8753V58.0936H22.9997L23.1056 59.4694ZM27.9275 61.6125V61.7514C27.9275 62.2718 27.8658 62.7546 27.7423 63.2C27.6188 63.641 27.438 64.0246 27.1999 64.3509C26.9662 64.6772 26.6774 64.9308 26.3334 65.1116C25.9895 65.2924 25.5948 65.3828 25.1494 65.3828C24.6952 65.3828 24.294 65.3078 23.9456 65.1579C23.5972 65.008 23.3018 64.7897 23.0593 64.5031C22.8167 64.2164 22.6227 63.8725 22.4772 63.4712C22.3361 63.0699 22.2391 62.6179 22.1861 62.1152V61.3744C22.2391 60.8453 22.3383 60.3712 22.4838 59.9523C22.6293 59.5334 22.8211 59.1762 23.0593 58.8808C23.3018 58.5809 23.595 58.3538 23.939 58.1995C24.2829 58.0407 24.6798 57.9613 25.1296 57.9613C25.5794 57.9613 25.9784 58.0495 26.3268 58.2259C26.6752 58.3979 26.9684 58.6448 27.2065 58.9667C27.4446 59.2886 27.6232 59.6745 27.7423 60.1243C27.8658 60.5696 27.9275 61.0657 27.9275 61.6125ZM26.6972 61.7514V61.6125C26.6972 61.2553 26.6597 60.9202 26.5848 60.6071C26.5098 60.2896 26.3929 60.0118 26.2342 59.7737C26.0799 59.5312 25.8814 59.3416 25.6389 59.2049C25.3964 59.0638 25.1075 58.9932 24.7724 58.9932C24.4637 58.9932 24.1947 59.0461 23.9654 59.1519C23.7405 59.2578 23.5487 59.4011 23.39 59.5819C23.2312 59.7583 23.1011 59.9611 22.9997 60.1904C22.9027 60.4153 22.83 60.649 22.7814 60.8916V62.6047C22.8696 62.9134 22.9931 63.2044 23.1519 63.4778C23.3106 63.7468 23.5223 63.9651 23.7868 64.1326C24.0514 64.2958 24.3844 64.3774 24.7856 64.3774C25.1164 64.3774 25.4008 64.309 25.6389 64.1723C25.8814 64.0312 26.0799 63.8394 26.2342 63.5969C26.3929 63.3543 26.5098 63.0765 26.5848 62.7634C26.6597 62.446 26.6972 62.1086 26.6972 61.7514ZM30.7122 59.4694V68.0021H29.4819V58.0936H30.6064L30.7122 59.4694ZM35.5341 61.6125V61.7514C35.5341 62.2718 35.4724 62.7546 35.3489 63.2C35.2255 63.641 35.0447 64.0246 34.8066 64.3509C34.5728 64.6772 34.284 64.9308 33.9401 65.1116C33.5961 65.2924 33.2014 65.3828 32.7561 65.3828C32.3019 65.3828 31.9006 65.3078 31.5522 65.1579C31.2039 65.008 30.9084 64.7897 30.6659 64.5031C30.4234 64.2164 30.2293 63.8725 30.0838 63.4712C29.9427 63.0699 29.8457 62.6179 29.7928 62.1152V61.3744C29.8457 60.8453 29.9449 60.3712 30.0904 59.9523C30.236 59.5334 30.4278 59.1762 30.6659 58.8808C30.9084 58.5809 31.2017 58.3538 31.5456 58.1995C31.8896 58.0407 32.2864 57.9613 32.7362 57.9613C33.186 57.9613 33.5851 58.0495 33.9334 58.2259C34.2818 58.3979 34.575 58.6448 34.8132 58.9667C35.0513 59.2886 35.2299 59.6745 35.3489 60.1243C35.4724 60.5696 35.5341 61.0657 35.5341 61.6125ZM34.3039 61.7514V61.6125C34.3039 61.2553 34.2664 60.9202 34.1914 60.6071C34.1164 60.2896 33.9996 60.0118 33.8408 59.7737C33.6865 59.5312 33.4881 59.3416 33.2455 59.2049C33.003 59.0638 32.7142 58.9932 32.379 58.9932C32.0704 58.9932 31.8014 59.0461 31.5721 59.1519C31.3472 59.2578 31.1554 59.4011 30.9966 59.5819C30.8379 59.7583 30.7078 59.9611 30.6064 60.1904C30.5094 60.4153 30.4366 60.649 30.3881 60.8916V62.6047C30.4763 62.9134 30.5998 63.2044 30.7585 63.4778C30.9172 63.7468 31.1289 63.9651 31.3935 64.1326C31.6581 64.2958 31.991 64.3774 32.3923 64.3774C32.723 64.3774 33.0074 64.309 33.2455 64.1723C33.4881 64.0312 33.6865 63.8394 33.8408 63.5969C33.9996 63.3543 34.1164 63.0765 34.1914 62.7634C34.2664 62.446 34.3039 62.1086 34.3039 61.7514ZM38.4247 55.0907V65.2505H37.1944V55.0907H38.4247ZM43.3591 65.3828C42.8608 65.3828 42.4088 65.299 42.0031 65.1314C41.6018 64.9595 41.2557 64.7191 40.9646 64.4105C40.678 64.1018 40.4575 63.7358 40.3032 63.3124C40.1488 62.8891 40.0717 62.4261 40.0717 61.9234V61.6456C40.0717 61.0635 40.1577 60.5454 40.3296 60.0912C40.5016 59.6326 40.7353 59.2445 41.0308 58.9271C41.3262 58.6096 41.6614 58.3692 42.0362 58.2061C42.411 58.0429 42.799 57.9613 43.2003 57.9613C43.7118 57.9613 44.1528 58.0495 44.5232 58.2259C44.898 58.4023 45.2045 58.6492 45.4426 58.9667C45.6807 59.2798 45.8571 59.6502 45.9718 60.078C46.0864 60.5013 46.1438 60.9643 46.1438 61.467V62.016H40.7993V61.0172H44.9201V60.9246C44.9024 60.6071 44.8363 60.2985 44.7216 59.9986C44.6114 59.6987 44.435 59.4518 44.1925 59.2578C43.95 59.0638 43.6192 58.9667 43.2003 58.9667C42.9225 58.9667 42.6668 59.0263 42.433 59.1453C42.1993 59.26 41.9987 59.432 41.8311 59.6613C41.6636 59.8906 41.5335 60.1706 41.4409 60.5013C41.3483 60.832 41.302 61.2135 41.302 61.6456V61.9234C41.302 62.263 41.3483 62.5827 41.4409 62.8825C41.5379 63.178 41.6768 63.4381 41.8576 63.663C42.0428 63.8879 42.2655 64.0643 42.5256 64.1922C42.7902 64.3201 43.0901 64.384 43.4252 64.384C43.8574 64.384 44.2234 64.2958 44.5232 64.1194C44.8231 63.943 45.0854 63.7071 45.3103 63.4117L46.0512 64.0004C45.8968 64.2341 45.7006 64.4568 45.4625 64.6684C45.2243 64.8801 44.9311 65.0521 44.5827 65.1843C44.2388 65.3166 43.8309 65.3828 43.3591 65.3828Z" fill="black"/>
<path d="M36.2024 24.862C36.1911 22.9286 37.067 21.4716 38.8359 20.3972C37.8466 18.9798 36.3498 18.2002 34.3768 18.05C32.5087 17.9026 30.4648 19.1386 29.7164 19.1386C28.9255 19.1386 27.117 18.101 25.6939 18.101C22.7571 18.1464 19.636 20.4425 19.636 25.1143C19.636 26.4948 19.8883 27.9207 20.3929 29.3891C21.0675 31.3224 23.4998 36.0593 26.0369 35.9828C27.3636 35.9516 28.3019 35.0416 30.0283 35.0416C31.7036 35.0416 32.5711 35.9828 34.0508 35.9828C36.6106 35.9459 38.8104 31.6399 39.4511 29.7009C36.0181 28.0823 36.2024 24.9612 36.2024 24.862ZM33.2231 16.2159C34.6603 14.5094 34.5299 12.9559 34.4874 12.3975C33.2174 12.4712 31.749 13.2621 30.9127 14.2344C29.9914 15.2776 29.45 16.5674 29.5662 18.0217C30.9382 18.1265 32.1912 17.4207 33.2231 16.2159Z" fill="black"/>
</svg>
