<svg width="59" height="69" viewBox="0 0 59 69" fill="none" xmlns="http://www.w3.org/2000/svg">
<rect x="0.967603" y="0.967603" width="56.121" height="46.4449" rx="8.70842" stroke="#386578" stroke-width="1.93521"/>
<path d="M15.0082 60.455V63.9805C14.8891 64.1569 14.6995 64.3553 14.4394 64.5758C14.1792 64.7919 13.8198 64.9815 13.3612 65.1447C12.907 65.3034 12.3205 65.3828 11.6018 65.3828C11.0153 65.3828 10.4751 65.2814 9.98121 65.0785C9.49174 64.8713 9.06621 64.5714 8.70462 64.1789C8.34744 63.7821 8.06963 63.3014 7.8712 62.737C7.67717 62.1681 7.58016 61.5243 7.58016 60.8056V60.0581C7.58016 59.3394 7.66394 58.6978 7.83151 58.1333C8.00348 57.5689 8.25483 57.0904 8.58556 56.698C8.91628 56.3011 9.32197 56.0013 9.80262 55.7984C10.2833 55.5912 10.8345 55.4875 11.4562 55.4875C12.1926 55.4875 12.8078 55.6154 13.3017 55.8712C13.8 56.1225 14.188 56.4709 14.4658 56.9163C14.748 57.3616 14.9288 57.8687 15.0082 58.4376H13.7316C13.6743 58.0892 13.5596 57.7717 13.3877 57.4851C13.2201 57.1985 12.9798 56.9692 12.6667 56.7972C12.3536 56.6208 11.9501 56.5326 11.4562 56.5326C11.0109 56.5326 10.625 56.6142 10.2987 56.7774C9.97239 56.9405 9.7034 57.1742 9.49174 57.4785C9.28008 57.7828 9.12133 58.151 9.0155 58.5831C8.91408 59.0152 8.86337 59.5025 8.86337 60.0449V60.8056C8.86337 61.3612 8.92731 61.8573 9.05519 62.2938C9.18748 62.7304 9.37489 63.103 9.61742 63.4117C9.85995 63.7159 10.1488 63.9474 10.4839 64.1062C10.8235 64.2649 11.1983 64.3443 11.6084 64.3443C12.0626 64.3443 12.4308 64.3068 12.713 64.2319C12.9952 64.1525 13.2157 64.0599 13.3744 63.9541C13.5332 63.8438 13.6544 63.7402 13.7382 63.6432V61.4869H11.5092V60.455H15.0082ZM16.6155 61.7514V61.5993C16.6155 61.0834 16.6905 60.6049 16.8404 60.164C16.9903 59.7186 17.2064 59.3327 17.4886 59.0064C17.7709 58.6757 18.1126 58.4199 18.5139 58.2391C18.9152 58.0539 19.3649 57.9613 19.8632 57.9613C20.3659 57.9613 20.8179 58.0539 21.2192 58.2391C21.6249 58.4199 21.9688 58.6757 22.2511 59.0064C22.5377 59.3327 22.756 59.7186 22.9059 60.164C23.0558 60.6049 23.1308 61.0834 23.1308 61.5993V61.7514C23.1308 62.2674 23.0558 62.7458 22.9059 63.1868C22.756 63.6277 22.5377 64.0136 22.2511 64.3443C21.9688 64.6706 21.6271 64.9264 21.2258 65.1116C20.8289 65.2924 20.3792 65.3828 19.8765 65.3828C19.3738 65.3828 18.9218 65.2924 18.5205 65.1116C18.1192 64.9264 17.7753 64.6706 17.4886 64.3443C17.2064 64.0136 16.9903 63.6277 16.8404 63.1868C16.6905 62.7458 16.6155 62.2674 16.6155 61.7514ZM17.8392 61.5993V61.7514C17.8392 62.1086 17.8811 62.446 17.9649 62.7634C18.0487 63.0765 18.1743 63.3543 18.3419 63.5969C18.5139 63.8394 18.7277 64.0312 18.9835 64.1723C19.2393 64.309 19.5369 64.3774 19.8765 64.3774C20.2116 64.3774 20.5048 64.309 20.7562 64.1723C21.0119 64.0312 21.2236 63.8394 21.3912 63.5969C21.5587 63.3543 21.6844 63.0765 21.7682 62.7634C21.8564 62.446 21.9005 62.1086 21.9005 61.7514V61.5993C21.9005 61.2465 21.8564 60.9136 21.7682 60.6005C21.6844 60.283 21.5565 60.003 21.3846 59.7605C21.217 59.5135 21.0053 59.3195 20.7496 59.1784C20.4982 59.0373 20.2028 58.9667 19.8632 58.9667C19.5281 58.9667 19.2327 59.0373 18.9769 59.1784C18.7255 59.3195 18.5139 59.5135 18.3419 59.7605C18.1743 60.003 18.0487 60.283 17.9649 60.6005C17.8811 60.9136 17.8392 61.2465 17.8392 61.5993ZM24.3412 61.7514V61.5993C24.3412 61.0834 24.4162 60.6049 24.5661 60.164C24.716 59.7186 24.9321 59.3327 25.2143 59.0064C25.4966 58.6757 25.8383 58.4199 26.2396 58.2391C26.6409 58.0539 27.0906 57.9613 27.5889 57.9613C28.0916 57.9613 28.5436 58.0539 28.9449 58.2391C29.3506 58.4199 29.6945 58.6757 29.9768 59.0064C30.2634 59.3327 30.4817 59.7186 30.6316 60.164C30.7815 60.6049 30.8565 61.0834 30.8565 61.5993V61.7514C30.8565 62.2674 30.7815 62.7458 30.6316 63.1868C30.4817 63.6277 30.2634 64.0136 29.9768 64.3443C29.6945 64.6706 29.3528 64.9264 28.9515 65.1116C28.5546 65.2924 28.1049 65.3828 27.6022 65.3828C27.0995 65.3828 26.6475 65.2924 26.2462 65.1116C25.8449 64.9264 25.501 64.6706 25.2143 64.3443C24.9321 64.0136 24.716 63.6277 24.5661 63.1868C24.4162 62.7458 24.3412 62.2674 24.3412 61.7514ZM25.5649 61.5993V61.7514C25.5649 62.1086 25.6068 62.446 25.6906 62.7634C25.7744 63.0765 25.9 63.3543 26.0676 63.5969C26.2396 63.8394 26.4534 64.0312 26.7092 64.1723C26.965 64.309 27.2626 64.3774 27.6022 64.3774C27.9373 64.3774 28.2305 64.309 28.4819 64.1723C28.7376 64.0312 28.9493 63.8394 29.1169 63.5969C29.2844 63.3543 29.4101 63.0765 29.4939 62.7634C29.5821 62.446 29.6262 62.1086 29.6262 61.7514V61.5993C29.6262 61.2465 29.5821 60.9136 29.4939 60.6005C29.4101 60.283 29.2822 60.003 29.1103 59.7605C28.9427 59.5135 28.731 59.3195 28.4753 59.1784C28.2239 59.0373 27.9285 58.9667 27.5889 58.9667C27.2538 58.9667 26.9584 59.0373 26.7026 59.1784C26.4512 59.3195 26.2396 59.5135 26.0676 59.7605C25.9 60.003 25.7744 60.283 25.6906 60.6005C25.6068 60.9136 25.5649 61.2465 25.5649 61.5993ZM37.0278 58.0936H38.139V65.0984C38.139 65.7289 38.0111 66.2669 37.7554 66.7123C37.4996 67.1577 37.1424 67.495 36.6838 67.7243C36.2296 67.958 35.7049 68.0749 35.1096 68.0749C34.8626 68.0749 34.5716 68.0352 34.2365 67.9558C33.9058 67.8808 33.5794 67.7508 33.2575 67.5656C32.94 67.3848 32.6733 67.14 32.4572 66.8313L33.0988 66.1038C33.3986 66.4653 33.7117 66.7167 34.038 66.8578C34.3688 66.9989 34.6951 67.0695 35.017 67.0695C35.405 67.0695 35.7402 66.9967 36.0224 66.8512C36.3046 66.7057 36.5229 66.4896 36.6772 66.203C36.836 65.9208 36.9153 65.5724 36.9153 65.1579V59.6679L37.0278 58.0936ZM32.1 61.7514V61.6125C32.1 61.0657 32.1639 60.5696 32.2918 60.1243C32.4241 59.6745 32.6115 59.2886 32.8541 58.9667C33.101 58.6448 33.3986 58.3979 33.747 58.2259C34.0954 58.0495 34.4878 57.9613 34.9244 57.9613C35.3742 57.9613 35.7666 58.0407 36.1018 58.1995C36.4413 58.3538 36.7279 58.5809 36.9616 58.8808C37.1998 59.1762 37.3872 59.5334 37.5239 59.9523C37.6606 60.3712 37.7554 60.8453 37.8083 61.3744V61.9829C37.7598 62.5077 37.665 62.9795 37.5239 63.3984C37.3872 63.8174 37.1998 64.1745 36.9616 64.47C36.7279 64.7654 36.4413 64.9925 36.1018 65.1513C35.7622 65.3056 35.3653 65.3828 34.9112 65.3828C34.4834 65.3828 34.0954 65.2924 33.747 65.1116C33.4031 64.9308 33.1076 64.6772 32.8607 64.3509C32.6137 64.0246 32.4241 63.641 32.2918 63.2C32.1639 62.7546 32.1 62.2718 32.1 61.7514ZM33.3237 61.6125V61.7514C33.3237 62.1086 33.359 62.4437 33.4295 62.7568C33.5045 63.0699 33.6169 63.3455 33.7668 63.5836C33.9212 63.8218 34.1174 64.0092 34.3555 64.1459C34.5937 64.2782 34.8781 64.3443 35.2088 64.3443C35.6145 64.3443 35.9496 64.2583 36.2142 64.0863C36.4788 63.9144 36.6882 63.6873 36.8426 63.4051C37.0013 63.1228 37.1248 62.8164 37.213 62.4856V60.8916C37.1645 60.649 37.0895 60.4153 36.9881 60.1904C36.8911 59.9611 36.7632 59.7583 36.6045 59.5819C36.4501 59.4011 36.2583 59.2578 36.029 59.1519C35.7997 59.0461 35.5307 58.9932 35.222 58.9932C34.8869 58.9932 34.5981 59.0638 34.3555 59.2049C34.1174 59.3416 33.9212 59.5312 33.7668 59.7737C33.6169 60.0118 33.5045 60.2896 33.4295 60.6071C33.359 60.9202 33.3237 61.2553 33.3237 61.6125ZM41.3272 55.0907V65.2505H40.0969V55.0907H41.3272ZM46.2616 65.3828C45.7633 65.3828 45.3113 65.299 44.9056 65.1314C44.5043 64.9595 44.1582 64.7191 43.8671 64.4105C43.5805 64.1018 43.36 63.7358 43.2057 63.3124C43.0514 62.8891 42.9742 62.4261 42.9742 61.9234V61.6456C42.9742 61.0635 43.0602 60.5454 43.2322 60.0912C43.4041 59.6326 43.6378 59.2445 43.9333 58.9271C44.2287 58.6096 44.5639 58.3692 44.9387 58.2061C45.3135 58.0429 45.7016 57.9613 46.1028 57.9613C46.6144 57.9613 47.0553 58.0495 47.4257 58.2259C47.8006 58.4023 48.107 58.6492 48.3451 58.9667C48.5833 59.2798 48.7596 59.6502 48.8743 60.078C48.989 60.5013 49.0463 60.9643 49.0463 61.467V62.016H43.7018V61.0172H47.8226V60.9246C47.805 60.6071 47.7388 60.2985 47.6242 59.9986C47.5139 59.6987 47.3375 59.4518 47.095 59.2578C46.8525 59.0638 46.5218 58.9667 46.1028 58.9667C45.825 58.9667 45.5693 59.0263 45.3356 59.1453C45.1018 59.26 44.9012 59.432 44.7336 59.6613C44.5661 59.8906 44.436 60.1706 44.3434 60.5013C44.2508 60.832 44.2045 61.2135 44.2045 61.6456V61.9234C44.2045 62.263 44.2508 62.5827 44.3434 62.8825C44.4404 63.178 44.5793 63.4381 44.7601 63.663C44.9453 63.8879 45.168 64.0643 45.4282 64.1922C45.6927 64.3201 45.9926 64.384 46.3277 64.384C46.7599 64.384 47.1259 64.2958 47.4257 64.1194C47.7256 63.943 47.988 63.7071 48.2129 63.4117L48.9537 64.0004C48.7993 64.2341 48.6031 64.4568 48.365 64.6684C48.1269 64.8801 47.8336 65.0521 47.4853 65.1843C47.1413 65.3166 46.7334 65.3828 46.2616 65.3828Z" fill="black"/>
<path d="M40.8879 21.8212H39.9137V21.771H29.0281V26.609H35.8636C34.8664 29.4253 32.1868 31.447 29.0281 31.447C25.0204 31.447 21.7711 28.1977 21.7711 24.19C21.7711 20.1823 25.0204 16.933 29.0281 16.933C30.8781 16.933 32.5611 17.6309 33.8426 18.7708L37.2636 15.3497C35.1035 13.3365 32.214 12.095 29.0281 12.095C22.3487 12.095 16.9331 17.5105 16.9331 24.19C16.9331 30.8695 22.3487 36.285 29.0281 36.285C35.7076 36.285 41.1232 30.8695 41.1232 24.19C41.1232 23.379 41.0397 22.5874 40.8879 21.8212Z" fill="#FFC107"/>
<path d="M18.3276 18.5604L22.3015 21.4747C23.3767 18.8126 25.9808 16.933 29.0281 16.933C30.878 16.933 32.5611 17.6309 33.8425 18.7708L37.2636 15.3497C35.1034 13.3365 32.2139 12.095 29.0281 12.095C24.3824 12.095 20.3536 14.7178 18.3276 18.5604Z" fill="#FF3D00"/>
<path d="M29.0281 36.2852C32.1522 36.2852 34.9909 35.0896 37.1372 33.1453L33.3938 29.9777C32.1387 30.9322 30.605 31.4485 29.0281 31.4472C25.8822 31.4472 23.211 29.4412 22.2047 26.6418L18.2605 29.6807C20.2622 33.5977 24.3274 36.2852 29.0281 36.2852Z" fill="#4CAF50"/>
<path d="M40.8879 21.8212H39.9136V21.771H29.0281V26.609H35.8636C35.3866 27.9494 34.5273 29.1206 33.392 29.9781L33.3938 29.9769L37.1372 33.1446C36.8723 33.3853 41.1231 30.2375 41.1231 24.19C41.1231 23.379 41.0397 22.5874 40.8879 21.8212Z" fill="#1976D2"/>
</svg>
